ffmpeg started on 2025-05-12 at 17:15:38
Report written to "D:\Convert\FFMetrics\reports\psnr_report-6.txt"
Log level: 32
Command line:
ffmpeg -hide_banner -nostdin -i "G:\\\xc0\xed\xe8\xec\xe5\\\xce\xed\xe3\xee\xe8\xed\xe3\xe8\\!_35_\xcb\xe5\xf2\xee_2024\\DreamCast\\\xce\xef\xe5\xf0\xe0\xf6\xe8\xff - \xd1\xe5\xec\xe5\xe9\xea\xe0 \xa8\xe4\xe7\xe0\xea\xf3\xf0\xe0\\[DC] Yozakura-san Chi no Daisakusen - 09_Telegram_HEVC.mkv" -i "G:\\\xc0\xed\xe8\xec\xe5\\\xce\xed\xe3\xee\xe8\xed\xe3\xe8\\!_35_\xcb\xe5\xf2\xee_2024\\DreamCast\\\xce\xef\xe5\xf0\xe0\xf6\xe8\xff - \xd1\xe5\xec\xe5\xe9\xea\xe0 \xa8\xe4\xe7\xe0\xea\xf3\xf0\xe0\\[DC] Yozakura-san Chi no Daisakusen - 09_Telegram.mp4" -lavfi "[0:v]settb=AVTB,setpts=PTS-STARTPTS,format=pix_fmts=yuv420p10,fps=24000/1001,scale=1920:1080:flags=bicubic[main];[1:v]settb=AVTB,setpts=PTS-STARTPTS,format=pix_fmts=yuv420p,fps=24000/1001,scale=1920:1080:flags=bicubic[ref];[main][ref]psnr=eof_action=endall:stats_file='D\\:/Convert/FFMetrics/logs/psnr_logfile-6.txt'" -f null -
Input #0, matroska,webm, from 'G:\Аниме\Онгоинги\!_35_Лето_2024\DreamCast\Операция - Семейка Ёдзакура\[DC] Yozakura-san Chi no Daisakusen - 09_Telegram_HEVC.mkv':
  Metadata:
    COMPATIBLE_BRANDS: isomiso2avc1mp41
    MAJOR_BRAND     : isom
    MINOR_VERSION   : 512
    ENCODER         : Lavf61.7.100
  Duration: 00:23:53.60, start: -0.021000, bitrate: 1123 kb/s
  Stream #0:0: Video: hevc (Main 10), yuv420p10le(tv, bt709, progressive), 1920x1080 [SAR 1:1 DAR 16:9], 23.98 fps, 23.98 tbr, 1k tbn (default)
      Metadata:
        HANDLER_NAME    : VideoHandler
        VENDOR_ID       : [0][0][0][0]
        ENCODER         : Lavc61.19.100 libx265
        BPS             : 925389
        DURATION        : 00:23:53.515708333
        NUMBER_OF_FRAMES: 34370
        NUMBER_OF_BYTES : 165819903
        _STATISTICS_WRITING_APP: mkvpropedit v66.0.0 ('Josie') 64-bit
        _STATISTICS_WRITING_DATE_UTC: 2025-05-08 14:06:02
        _STATISTICS_TAGS: BPS DURATION NUMBER_OF_FRAMES NUMBER_OF_BYTES
  Stream #0:1: Audio: aac (LC), 48000 Hz, stereo, fltp (default)
      Metadata:
        HANDLER_NAME    : SoundHandler
        VENDOR_ID       : [0][0][0][0]
        ENCODER         : Lavc61.19.100 aac
        BPS             : 193689
        DURATION        : 00:23:53.600000000
        NUMBER_OF_FRAMES: 67201
        NUMBER_OF_BYTES : 34709094
        _STATISTICS_WRITING_APP: mkvpropedit v66.0.0 ('Josie') 64-bit
        _STATISTICS_WRITING_DATE_UTC: 2025-05-08 14:06:02
        _STATISTICS_TAGS: BPS DURATION NUMBER_OF_FRAMES NUMBER_OF_BYTES
Input #1, mov,mp4,m4a,3gp,3g2,mj2, from 'G:\Аниме\Онгоинги\!_35_Лето_2024\DreamCast\Операция - Семейка Ёдзакура\[DC] Yozakura-san Chi no Daisakusen - 09_Telegram.mp4':
  Metadata:
    major_brand     : isom
    minor_version   : 512
    compatible_brands: isomiso2avc1mp41
    encoder         : Lavf60.16.100
  Duration: 00:23:53.58, start: 0.000000, bitrate: 3430 kb/s
  Stream #1:0[0x1](und): Video: h264 (High) (avc1 / 0x31637661), yuv420p(tv, bt709, progressive), 1920x1080 [SAR 1:1 DAR 16:9], 3282 kb/s, 23.98 fps, 23.98 tbr, 24k tbn (default)
      Metadata:
        handler_name    : VideoHandler
        vendor_id       : [0][0][0][0]
        encoder         : Lavc60.31.102 h264_qsv
  Stream #1:1[0x2](und): Audio: aac (HE-AACv2) (mp4a / 0x6134706D), 48000 Hz, stereo, fltp, 144 kb/s (default)
      Metadata:
        handler_name    : SoundHandler
        vendor_id       : [0][0][0][0]
Stream mapping:
  Stream #0:0 (hevc) -> settb:default
  Stream #1:0 (h264) -> settb:default
  psnr:default -> Stream #0:0 (wrapped_avframe)
  Stream #0:1 -> #0:1 (aac (native) -> pcm_s16le (native))
Output #0, null, to 'pipe:':
  Metadata:
    COMPATIBLE_BRANDS: isomiso2avc1mp41
    MAJOR_BRAND     : isom
    MINOR_VERSION   : 512
    encoder         : Lavf61.7.100
  Stream #0:0: Video: wrapped_avframe, yuv420p10le(tv, bt709, progressive), 1920x1080 [SAR 1:1 DAR 16:9], q=2-31, 200 kb/s, 23.98 fps, 23.98 tbn
      Metadata:
        encoder         : Lavc61.19.100 wrapped_avframe
  Stream #0:1: Audio: pcm_s16le, 48000 Hz, stereo, s16, 1536 kb/s (default)
      Metadata:
        HANDLER_NAME    : SoundHandler
        VENDOR_ID       : [0][0][0][0]
        _STATISTICS_TAGS: BPS DURATION NUMBER_OF_FRAMES NUMBER_OF_BYTES
        BPS             : 193689
        DURATION        : 00:23:53.600000000
        NUMBER_OF_FRAMES: 67201
        NUMBER_OF_BYTES : 34709094
        _STATISTICS_WRITING_APP: mkvpropedit v66.0.0 ('Josie') 64-bit
        _STATISTICS_WRITING_DATE_UTC: 2025-05-08 14:06:02
        encoder         : Lavc61.19.100 pcm_s16le
frame=  170 fps=0.0 q=-0.0 size=N/A time=00:00:07.09 bitrate=N/A speed=13.7x    frame=  448 fps=430 q=-0.0 size=N/A time=00:00:18.68 bitrate=N/A speed=17.9x    frame=  700 fps=452 q=-0.0 size=N/A time=00:00:29.19 bitrate=N/A speed=18.8x    frame=  966 fps=466 q=-0.0 size=N/A time=00:00:40.29 bitrate=N/A speed=19.4x    frame= 1232 fps=477 q=-0.0 size=N/A time=00:00:51.38 bitrate=N/A speed=19.9x    frame= 1456 fps=469 q=-0.0 size=N/A time=00:01:00.72 bitrate=N/A speed=19.6x    frame= 1640 fps=452 q=-0.0 size=N/A time=00:01:08.40 bitrate=N/A speed=18.9x    frame= 1864 fps=451 q=-0.0 size=N/A time=00:01:17.74 bitrate=N/A speed=18.8x    frame= 2068 fps=444 q=-0.0 size=N/A time=00:01:26.25 bitrate=N/A speed=18.5x    frame= 2253 fps=436 q=-0.0 size=N/A time=00:01:33.96 bitrate=N/A speed=18.2x    frame= 2432 fps=428 q=-0.0 size=N/A time=00:01:41.43 bitrate=N/A speed=17.8x    frame= 2599 fps=420 q=-0.0 size=N/A time=00:01:48.39 bitrate=N/A speed=17.5x    frame= 2761 fps=411 q=-0.0 size=N/A time=00:01:55.15 bitrate=N/A speed=17.1x    frame= 2934 fps=406 q=-0.0 size=N/A time=00:02:02.37 bitrate=N/A speed=16.9x    frame= 3143 fps=406 q=-0.0 size=N/A time=00:02:11.08 bitrate=N/A speed=16.9x    frame= 3325 fps=402 q=-0.0 size=N/A time=00:02:18.68 bitrate=N/A speed=16.8x    frame= 3509 fps=399 q=-0.0 size=N/A time=00:02:26.35 bitrate=N/A speed=16.7x    frame= 3739 fps=402 q=-0.0 size=N/A time=00:02:35.94 bitrate=N/A speed=16.8x    frame= 3965 fps=404 q=-0.0 size=N/A time=00:02:45.37 bitrate=N/A speed=16.8x    frame= 4185 fps=405 q=-0.0 size=N/A time=00:02:54.54 bitrate=N/A speed=16.9x    frame= 4434 fps=408 q=-0.0 size=N/A time=00:03:04.93 bitrate=N/A speed=  17x    frame= 4707 fps=414 q=-0.0 size=N/A time=00:03:16.32 bitrate=N/A speed=17.3x    frame= 4996 fps=420 q=-0.0 size=N/A time=00:03:28.37 bitrate=N/A speed=17.5x    frame= 5218 fps=421 q=-0.0 size=N/A time=00:03:37.63 bitrate=N/A speed=17.5x    frame= 5444 fps=422 q=-0.0 size=N/A time=00:03:47.06 bitrate=N/A speed=17.6x    frame= 5694 fps=424 q=-0.0 size=N/A time=00:03:57.48 bitrate=N/A speed=17.7x    frame= 5932 fps=425 q=-0.0 size=N/A time=00:04:07.41 bitrate=N/A speed=17.7x    frame= 6179 fps=427 q=-0.0 size=N/A time=00:04:17.71 bitrate=N/A speed=17.8x    frame= 6430 fps=429 q=-0.0 size=N/A time=00:04:28.18 bitrate=N/A speed=17.9x    frame= 6680 fps=431 q=-0.0 size=N/A time=00:04:38.61 bitrate=N/A speed=  18x    frame= 6944 fps=434 q=-0.0 size=N/A time=00:04:49.62 bitrate=N/A speed=18.1x    frame= 7218 fps=437 q=-0.0 size=N/A time=00:05:01.05 bitrate=N/A speed=18.2x    frame= 7456 fps=437 q=-0.0 size=N/A time=00:05:10.97 bitrate=N/A speed=18.2x    frame= 7706 fps=439 q=-0.0 size=N/A time=00:05:21.40 bitrate=N/A speed=18.3x    frame= 7964 fps=441 q=-0.0 size=N/A time=00:05:32.16 bitrate=N/A speed=18.4x    frame= 8222 fps=442 q=-0.0 size=N/A time=00:05:42.92 bitrate=N/A speed=18.5x    frame= 8466 fps=443 q=-0.0 size=N/A time=00:05:53.10 bitrate=N/A speed=18.5x    frame= 8711 fps=444 q=-0.0 size=N/A time=00:06:03.32 bitrate=N/A speed=18.5x    frame= 8918 fps=443 q=-0.0 size=N/A time=00:06:11.95 bitrate=N/A speed=18.5x    frame= 9180 fps=444 q=-0.0 size=N/A time=00:06:22.88 bitrate=N/A speed=18.5x    frame= 9435 fps=446 q=-0.0 size=N/A time=00:06:33.51 bitrate=N/A speed=18.6x    frame= 9698 fps=447 q=-0.0 size=N/A time=00:06:44.48 bitrate=N/A speed=18.7x    frame= 9951 fps=448 q=-0.0 size=N/A time=00:06:55.03 bitrate=N/A speed=18.7x    frame=10203 fps=449 q=-0.0 size=N/A time=00:07:05.55 bitrate=N/A speed=18.7x    frame=10479 fps=451 q=-0.0 size=N/A time=00:07:17.06 bitrate=N/A speed=18.8x    frame=10733 fps=452 q=-0.0 size=N/A time=00:07:27.65 bitrate=N/A speed=18.9x    frame=11000 fps=453 q=-0.0 size=N/A time=00:07:38.79 bitrate=N/A speed=18.9x    frame=11267 fps=455 q=-0.0 size=N/A time=00:07:49.92 bitrate=N/A speed=  19x    frame=11464 fps=453 q=-0.0 size=N/A time=00:07:58.14 bitrate=N/A speed=18.9x    frame=11701 fps=454 q=-0.0 size=N/A time=00:08:08.02 bitrate=N/A speed=18.9x    frame=11970 fps=455 q=-0.0 size=N/A time=00:08:19.24 bitrate=N/A speed=  19x    frame=12249 fps=456 q=-0.0 size=N/A time=00:08:30.88 bitrate=N/A speed=  19x    frame=12505 fps=457 q=-0.0 size=N/A time=00:08:41.56 bitrate=N/A speed=19.1x    frame=12783 fps=459 q=-0.0 size=N/A time=00:08:53.15 bitrate=N/A speed=19.1x    frame=13029 fps=459 q=-0.0 size=N/A time=00:09:03.41 bitrate=N/A speed=19.1x    frame=13279 fps=459 q=-0.0 size=N/A time=00:09:13.84 bitrate=N/A speed=19.2x    frame=13515 fps=459 q=-0.0 size=N/A time=00:09:23.68 bitrate=N/A speed=19.2x    frame=13756 fps=460 q=-0.0 size=N/A time=00:09:33.73 bitrate=N/A speed=19.2x    frame=14029 fps=461 q=-0.0 size=N/A time=00:09:45.12 bitrate=N/A speed=19.2x    frame=14295 fps=462 q=-0.0 size=N/A time=00:09:56.22 bitrate=N/A speed=19.3x    frame=14539 fps=462 q=-0.0 size=N/A time=00:10:06.39 bitrate=N/A speed=19.3x    frame=14815 fps=463 q=-0.0 size=N/A time=00:10:17.90 bitrate=N/A speed=19.3x    frame=15090 fps=464 q=-0.0 size=N/A time=00:10:29.37 bitrate=N/A speed=19.4x    frame=15356 fps=465 q=-0.0 size=N/A time=00:10:40.47 bitrate=N/A speed=19.4x    frame=15631 fps=466 q=-0.0 size=N/A time=00:10:51.94 bitrate=N/A speed=19.4x    frame=15900 fps=467 q=-0.0 size=N/A time=00:11:03.16 bitrate=N/A speed=19.5x    frame=16156 fps=467 q=-0.0 size=N/A time=00:11:13.83 bitrate=N/A speed=19.5x    frame=16428 fps=468 q=-0.0 size=N/A time=00:11:25.18 bitrate=N/A speed=19.5x    frame=16715 fps=469 q=-0.0 size=N/A time=00:11:37.15 bitrate=N/A speed=19.6x    frame=16978 fps=470 q=-0.0 size=N/A time=00:11:48.12 bitrate=N/A speed=19.6x    frame=17233 fps=470 q=-0.0 size=N/A time=00:11:58.75 bitrate=N/A speed=19.6x    frame=17443 fps=469 q=-0.0 size=N/A time=00:12:07.51 bitrate=N/A speed=19.6x    frame=17651 fps=468 q=-0.0 size=N/A time=00:12:16.19 bitrate=N/A speed=19.5x    frame=17861 fps=468 q=-0.0 size=N/A time=00:12:24.95 bitrate=N/A speed=19.5x    frame=18074 fps=467 q=-0.0 size=N/A time=00:12:33.83 bitrate=N/A speed=19.5x    frame=18322 fps=467 q=-0.0 size=N/A time=00:12:44.18 bitrate=N/A speed=19.5x    frame=18603 fps=468 q=-0.0 size=N/A time=00:12:55.90 bitrate=N/A speed=19.5x    frame=18864 fps=469 q=-0.0 size=N/A time=00:13:06.78 bitrate=N/A speed=19.5x    frame=19117 fps=469 q=-0.0 size=N/A time=00:13:17.33 bitrate=N/A speed=19.6x    frame=19396 fps=470 q=-0.0 size=N/A time=00:13:28.97 bitrate=N/A speed=19.6x    frame=19667 fps=470 q=-0.0 size=N/A time=00:13:40.27 bitrate=N/A speed=19.6x    frame=19931 fps=471 q=-0.0 size=N/A time=00:13:51.28 bitrate=N/A speed=19.6x    frame=20175 fps=471 q=-0.0 size=N/A time=00:14:01.46 bitrate=N/A speed=19.6x    frame=20427 fps=471 q=-0.0 size=N/A time=00:14:11.97 bitrate=N/A speed=19.7x    frame=20690 fps=472 q=-0.0 size=N/A time=00:14:22.94 bitrate=N/A speed=19.7x    frame=20936 fps=472 q=-0.0 size=N/A time=00:14:33.20 bitrate=N/A speed=19.7x    frame=21200 fps=472 q=-0.0 size=N/A time=00:14:44.21 bitrate=N/A speed=19.7x    frame=21472 fps=473 q=-0.0 size=N/A time=00:14:55.56 bitrate=N/A speed=19.7x    frame=21730 fps=473 q=-0.0 size=N/A time=00:15:06.32 bitrate=N/A speed=19.7x    frame=22006 fps=474 q=-0.0 size=N/A time=00:15:17.83 bitrate=N/A speed=19.8x    frame=22273 fps=474 q=-0.0 size=N/A time=00:15:28.96 bitrate=N/A speed=19.8x    frame=22462 fps=473 q=-0.0 size=N/A time=00:15:36.85 bitrate=N/A speed=19.7x    frame=22723 fps=473 q=-0.0 size=N/A time=00:15:47.73 bitrate=N/A speed=19.7x    frame=22918 fps=472 q=-0.0 size=N/A time=00:15:55.87 bitrate=N/A speed=19.7x    frame=23136 fps=472 q=-0.0 size=N/A time=00:16:04.96 bitrate=N/A speed=19.7x    frame=23362 fps=471 q=-0.0 size=N/A time=00:16:14.39 bitrate=N/A speed=19.7x    frame=23583 fps=471 q=-0.0 size=N/A time=00:16:23.60 bitrate=N/A speed=19.6x    frame=23802 fps=471 q=-0.0 size=N/A time=00:16:32.74 bitrate=N/A speed=19.6x    frame=24006 fps=470 q=-0.0 size=N/A time=00:16:41.25 bitrate=N/A speed=19.6x    frame=24269 fps=470 q=-0.0 size=N/A time=00:16:52.21 bitrate=N/A speed=19.6x    frame=24507 fps=470 q=-0.0 size=N/A time=00:17:02.14 bitrate=N/A speed=19.6x    frame=24784 fps=471 q=-0.0 size=N/A time=00:17:13.69 bitrate=N/A speed=19.6x    frame=25066 fps=471 q=-0.0 size=N/A time=00:17:25.46 bitrate=N/A speed=19.7x    frame=25312 fps=471 q=-0.0 size=N/A time=00:17:35.72 bitrate=N/A speed=19.7x    frame=25583 fps=472 q=-0.0 size=N/A time=00:17:47.02 bitrate=N/A speed=19.7x    frame=25851 fps=472 q=-0.0 size=N/A time=00:17:58.20 bitrate=N/A speed=19.7x    frame=26059 fps=472 q=-0.0 size=N/A time=00:18:06.87 bitrate=N/A speed=19.7x    frame=26303 fps=472 q=-0.0 size=N/A time=00:18:17.05 bitrate=N/A speed=19.7x    frame=26553 fps=472 q=-0.0 size=N/A time=00:18:27.48 bitrate=N/A speed=19.7x    frame=26804 fps=472 q=-0.0 size=N/A time=00:18:37.95 bitrate=N/A speed=19.7x    frame=27040 fps=472 q=-0.0 size=N/A time=00:18:47.79 bitrate=N/A speed=19.7x    frame=27293 fps=472 q=-0.0 size=N/A time=00:18:58.34 bitrate=N/A speed=19.7x    frame=27523 fps=472 q=-0.0 size=N/A time=00:19:07.93 bitrate=N/A speed=19.7x    frame=27777 fps=472 q=-0.0 size=N/A time=00:19:18.53 bitrate=N/A speed=19.7x    frame=28020 fps=472 q=-0.0 size=N/A time=00:19:28.66 bitrate=N/A speed=19.7x    frame=28297 fps=473 q=-0.0 size=N/A time=00:19:40.22 bitrate=N/A speed=19.7x    frame=28567 fps=473 q=-0.0 size=N/A time=00:19:51.48 bitrate=N/A speed=19.7x    frame=28836 fps=473 q=-0.0 size=N/A time=00:20:02.74 bitrate=N/A speed=19.7x    frame=29088 fps=474 q=-0.0 size=N/A time=00:20:13.21 bitrate=N/A speed=19.8x    frame=29368 fps=474 q=-0.0 size=N/A time=00:20:24.89 bitrate=N/A speed=19.8x    frame=29641 fps=475 q=-0.0 size=N/A time=00:20:36.27 bitrate=N/A speed=19.8x    frame=29924 fps=475 q=-0.0 size=N/A time=00:20:48.08 bitrate=N/A speed=19.8x    frame=30202 fps=476 q=-0.0 size=N/A time=00:20:59.67 bitrate=N/A speed=19.8x    frame=30450 fps=476 q=-0.0 size=N/A time=00:21:10.01 bitrate=N/A speed=19.8x    frame=30704 fps=476 q=-0.0 size=N/A time=00:21:20.61 bitrate=N/A speed=19.8x    frame=30968 fps=476 q=-0.0 size=N/A time=00:21:31.62 bitrate=N/A speed=19.9x    frame=31200 fps=476 q=-0.0 size=N/A time=00:21:41.30 bitrate=N/A speed=19.8x    frame=31438 fps=476 q=-0.0 size=N/A time=00:21:51.22 bitrate=N/A speed=19.8x    frame=31674 fps=476 q=-0.0 size=N/A time=00:22:01.06 bitrate=N/A speed=19.8x    frame=31929 fps=476 q=-0.0 size=N/A time=00:22:11.70 bitrate=N/A speed=19.8x    frame=32175 fps=476 q=-0.0 size=N/A time=00:22:21.96 bitrate=N/A speed=19.8x    frame=32390 fps=475 q=-0.0 size=N/A time=00:22:30.93 bitrate=N/A speed=19.8x    frame=32647 fps=476 q=-0.0 size=N/A time=00:22:41.65 bitrate=N/A speed=19.8x    frame=32861 fps=475 q=-0.0 size=N/A time=00:22:50.57 bitrate=N/A speed=19.8x    frame=33098 fps=475 q=-0.0 size=N/A time=00:23:00.46 bitrate=N/A speed=19.8x    frame=33303 fps=474 q=-0.0 size=N/A time=00:23:09.01 bitrate=N/A speed=19.8x    frame=33487 fps=474 q=-0.0 size=N/A time=00:23:16.68 bitrate=N/A speed=19.7x    frame=33671 fps=473 q=-0.0 size=N/A time=00:23:24.36 bitrate=N/A speed=19.7x    frame=33844 fps=472 q=-0.0 size=N/A time=00:23:31.57 bitrate=N/A speed=19.7x    frame=34049 fps=471 q=-0.0 size=N/A time=00:23:40.12 bitrate=N/A speed=19.7x    frame=34218 fps=470 q=-0.0 size=N/A time=00:23:47.17 bitrate=N/A speed=19.6x    [Parsed_psnr_10 @ 0000016e59eefec0] PSNR y:48.807356 u:51.596146 v:51.287570 average:49.520775 min:38.524130 max:inf
[out#0/null @ 0000016e5241eec0] video:14768KiB audio:268804KiB subtitle:0KiB other streams:0KiB global headers:0KiB muxing overhead: unknown
frame=34370 fps=470 q=-0.0 Lsize=N/A time=00:23:53.51 bitrate=N/A speed=19.6x    
